<svg width="20" height="21" viewBox="0 0 20 21" fill="none" xmlns="http://www.w3.org/2000/svg">
<path d="M5.78353 5.05935C5.78331 5.50137 5.6075 5.92521 5.29478 6.23761C4.98207 6.55002 4.55806 6.7254 4.11603 6.72518C3.674 6.72496 3.25017 6.54915 2.93776 6.23643C2.62536 5.92372 2.44997 5.49971 2.4502 5.05768C2.45042 4.61565 2.62622 4.19182 2.93894 3.87941C3.25166 3.56701 3.67567 3.39162 4.1177 3.39185C4.55972 3.39207 4.98356 3.56787 5.29596 3.88059C5.60837 4.19331 5.78375 4.61732 5.78353 5.05935ZM5.83353 7.95935H2.5002V18.3927H5.83353V7.95935ZM11.1002 7.95935H7.78353V18.3927H11.0669V12.9177C11.0669 9.86768 15.0419 9.58435 15.0419 12.9177V18.3927H18.3335V11.7843C18.3335 6.64268 12.4502 6.83435 11.0669 9.35935L11.1002 7.95935Z" fill="white"/>
</svg>
