<svg width="20" height="21" viewBox="0 0 20 21" fill="none" xmlns="http://www.w3.org/2000/svg">
<path d="M10.0003 2.55981C12.2645 2.55981 12.547 2.56815 13.4353 2.60981C14.3228 2.65148 14.927 2.79065 15.4587 2.99731C16.0087 3.20898 16.472 3.49565 16.9353 3.95815C17.3591 4.37473 17.687 4.87864 17.8962 5.43481C18.102 5.96565 18.242 6.57065 18.2837 7.45815C18.3228 8.34648 18.3337 8.62898 18.3337 10.8931C18.3337 13.1573 18.3253 13.4398 18.2837 14.3281C18.242 15.2156 18.102 15.8198 17.8962 16.3515C17.6876 16.908 17.3596 17.412 16.9353 17.8281C16.5186 18.2517 16.0148 18.5796 15.4587 18.789C14.9278 18.9948 14.3228 19.1348 13.4353 19.1765C12.547 19.2156 12.2645 19.2265 10.0003 19.2265C7.73616 19.2265 7.45366 19.2181 6.56533 19.1765C5.67783 19.1348 5.07366 18.9948 4.54199 18.789C3.9856 18.5802 3.4816 18.2523 3.06533 17.8281C2.6415 17.4116 2.3136 16.9077 2.10449 16.3515C1.89783 15.8206 1.75866 15.2156 1.71699 14.3281C1.67783 13.4398 1.66699 13.1573 1.66699 10.8931C1.66699 8.62898 1.67533 8.34648 1.71699 7.45815C1.75866 6.56981 1.89783 5.96648 2.10449 5.43481C2.31302 4.8783 2.641 4.37425 3.06533 3.95815C3.48172 3.53417 3.98568 3.20626 4.54199 2.99731C5.07366 2.79065 5.67699 2.65148 6.56533 2.60981C7.45366 2.57065 7.73616 2.55981 10.0003 2.55981ZM10.0003 6.72648C8.89526 6.72648 7.83545 7.16547 7.05405 7.94687C6.27265 8.72827 5.83366 9.78808 5.83366 10.8931C5.83366 11.9982 6.27265 13.058 7.05405 13.8394C7.83545 14.6208 8.89526 15.0598 10.0003 15.0598C11.1054 15.0598 12.1652 14.6208 12.9466 13.8394C13.728 13.058 14.167 11.9982 14.167 10.8931C14.167 9.78808 13.728 8.72827 12.9466 7.94687C12.1652 7.16547 11.1054 6.72648 10.0003 6.72648ZM15.417 6.51815C15.417 6.24188 15.3072 5.97693 15.1119 5.78158C14.9165 5.58623 14.6516 5.47648 14.3753 5.47648C14.0991 5.47648 13.8341 5.58623 13.6388 5.78158C13.4434 5.97693 13.3337 6.24188 13.3337 6.51815C13.3337 6.79441 13.4434 7.05937 13.6388 7.25472C13.8341 7.45007 14.0991 7.55981 14.3753 7.55981C14.6516 7.55981 14.9165 7.45007 15.1119 7.25472C15.3072 7.05937 15.417 6.79441 15.417 6.51815ZM10.0003 8.39315C10.6634 8.39315 11.2993 8.65654 11.7681 9.12538C12.2369 9.59422 12.5003 10.2301 12.5003 10.8931C12.5003 11.5562 12.2369 12.1921 11.7681 12.6609C11.2993 13.1298 10.6634 13.3931 10.0003 13.3931C9.33728 13.3931 8.7014 13.1298 8.23256 12.6609C7.76372 12.1921 7.50033 11.5562 7.50033 10.8931C7.50033 10.2301 7.76372 9.59422 8.23256 9.12538C8.7014 8.65654 9.33728 8.39315 10.0003 8.39315Z" fill="white"/>
</svg>
