<svg width="20" height="21" viewBox="0 0 20 21" fill="none" xmlns="http://www.w3.org/2000/svg">
<path d="M18.4683 5.60658C17.8321 5.88799 17.1574 6.07281 16.4666 6.15492C17.1947 5.71944 17.7397 5.03409 17.9999 4.22658C17.3166 4.63325 16.5674 4.91825 15.7866 5.07242C15.2621 4.51123 14.5669 4.13905 13.8091 4.01374C13.0512 3.88842 12.2732 4.01699 11.596 4.37946C10.9187 4.74193 10.3802 5.31799 10.0642 6.01808C9.74812 6.71817 9.67221 7.50307 9.84826 8.25075C8.46251 8.18129 7.10687 7.82118 5.86933 7.1938C4.63179 6.56642 3.54003 5.68579 2.66492 4.60908C2.35516 5.14112 2.19238 5.74594 2.19326 6.36158C2.19326 7.56992 2.80826 8.63742 3.74326 9.26242C3.18993 9.245 2.64878 9.09557 2.16492 8.82658V8.86992C2.16509 9.67467 2.44356 10.4546 2.95313 11.0775C3.46269 11.7003 4.17199 12.1278 4.96076 12.2874C4.4471 12.4266 3.90851 12.4471 3.38576 12.3474C3.60814 13.0401 4.04159 13.6459 4.62542 14.08C5.20924 14.5141 5.9142 14.7547 6.64159 14.7682C5.91866 15.336 5.0909 15.7557 4.20566 16.0034C3.32041 16.251 2.39503 16.3218 1.48242 16.2116C3.0755 17.2361 4.93 17.78 6.82409 17.7782C13.2349 17.7782 16.7408 12.4674 16.7408 7.86158C16.7408 7.71158 16.7366 7.55992 16.7299 7.41158C17.4123 6.91839 18.0013 6.30743 18.4691 5.60742L18.4683 5.60658Z" fill="white"/>
</svg>
