<svg width="32" height="32" viewBox="0 0 32 32" fill="none" xmlns="http://www.w3.org/2000/svg">
<path d="M17.4137 10.8133L19.3003 12.7C20.1671 13.5667 20.8547 14.5956 21.3238 15.7281C21.7929 16.8605 22.0343 18.0742 22.0343 19.3C22.0343 20.5257 21.7929 21.7395 21.3238 22.8719C20.8547 24.0044 20.1671 25.0333 19.3003 25.9L18.8283 26.3707C17.0779 28.1211 14.7038 29.1045 12.2283 29.1045C9.75286 29.1045 7.37877 28.1211 5.62834 26.3707C3.87791 24.6202 2.89453 22.2461 2.89453 19.7707C2.89453 17.2952 3.87791 14.9211 5.62834 13.1707L7.51501 15.0573C6.8915 15.6754 6.39621 16.4105 6.05758 17.2205C5.71894 18.0305 5.54363 18.8994 5.54171 19.7774C5.53979 20.6553 5.71129 21.525 6.04638 22.3364C6.38146 23.1479 6.87352 23.8852 7.49432 24.506C8.11511 25.1268 8.85241 25.6189 9.66388 25.9539C10.4754 26.289 11.345 26.4605 12.223 26.4586C13.1009 26.4567 13.9698 26.2814 14.7798 25.9427C15.5898 25.6041 16.3249 25.1088 16.943 24.4853L17.415 24.0133C18.6648 22.7631 19.3669 21.0677 19.3669 19.3C19.3669 17.5322 18.6648 15.8368 17.415 14.5866L15.5283 12.7L17.415 10.8147L17.4137 10.8133ZM26.371 18.828L24.4857 16.9426C25.1092 16.3246 25.6045 15.5894 25.9431 14.7794C26.2817 13.9694 26.457 13.1005 26.459 12.2226C26.4609 11.3447 26.2894 10.475 25.9543 9.66353C25.6192 8.85205 25.1272 8.11476 24.5064 7.49396C23.8856 6.87317 23.1483 6.3811 22.3368 6.04602C21.5253 5.71094 20.6557 5.53943 19.7777 5.54136C18.8998 5.54328 18.0309 5.71859 17.2209 6.05722C16.4109 6.39586 15.6757 6.89114 15.0577 7.51465L14.5857 7.98665C13.3359 9.23684 12.6338 10.9322 12.6338 12.7C12.6338 14.4677 13.3359 16.1631 14.5857 17.4133L16.4723 19.3L14.5857 21.1853L12.7003 19.3C11.8336 18.4333 11.146 17.4044 10.6769 16.2719C10.2078 15.1395 9.96633 13.9257 9.96633 12.7C9.96633 11.4742 10.2078 10.2605 10.6769 9.12805C11.146 7.99562 11.8336 6.96668 12.7003 6.09998L13.1723 5.62932C14.9228 3.87889 17.2969 2.89551 19.7723 2.89551C22.2478 2.89551 24.6219 3.87889 26.3723 5.62932C28.1228 7.37975 29.1062 9.75384 29.1062 12.2293C29.1062 14.7048 28.1228 17.0789 26.3723 18.8293L26.371 18.828Z" fill="black"/>
</svg>
